<svg width="24" height="24" viewBox="0 0 24 24" fill="none" xmlns="http://www.w3.org/2000/svg">
  <path d="M9.25 11.25C11.0449 11.25 12.5 9.79493 12.5 8C12.5 6.20507 11.0449 4.75 9.25 4.75C7.45507 4.75 6 6.20507 6 8C6 9.79493 7.45507 11.25 9.25 11.25Z" stroke="#111111" stroke-width="1.8" stroke-linecap="round" stroke-linejoin="round"/>
  <path d="M3.75 19.25C3.75 16.3505 6.21243 14 9.25 14C12.2876 14 14.75 16.3505 14.75 19.25" stroke="#111111" stroke-width="1.8" stroke-linecap="round" stroke-linejoin="round"/>
  <path d="M15.25 11.25C16.7688 11.25 18 10.0188 18 8.5C18 6.98122 16.7688 5.75 15.25 5.75" stroke="#111111" stroke-width="1.8" stroke-linecap="round" stroke-linejoin="round"/>
  <path d="M16.5 14.25C18.6522 14.7858 20.25 16.7493 20.25 19.25" stroke="#111111" stroke-width="1.8" stroke-linecap="round" stroke-linejoin="round"/>
</svg>
