<svg width="24" height="24" viewBox="0 0 24 24" fill="none" xmlns="http://www.w3.org/2000/svg">
  <path d="M12 15.5a3.5 3.5 0 1 0 0-7 3.5 3.5 0 0 0 0 7z" stroke="#111827" stroke-width="1.8"/>
  <path d="M19.4 13.5c.1-.5.1-1 .1-1.5s0-1-.1-1.5l2-1.5-2-3.4-2.4 1a8.1 8.1 0 0 0-2.6-1.5L14 2.5h-4l-.4 2.6A8.1 8.1 0 0 0 7 6.6l-2.4-1-2 3.4 2 1.5c-.1.5-.1 1-.1 1.5s0 1 .1 1.5l-2 1.5 2 3.4 2.4-1a8.1 8.1 0 0 0 2.6 1.5l.4 2.6h4l.4-2.6a8.1 8.1 0 0 0 2.6-1.5l2.4 1 2-3.4-2-1.5z" stroke="#111827" stroke-width="1.8" stroke-linecap="round" stroke-linejoin="round"/>
</svg>
